<svg height="512pt" viewBox="0 0 512 512" width="512pt" xmlns="http://www.w3.org/2000/svg"><path d="m447.886719 228.941406c0 120.921875-98.023438 218.945313-218.945313 218.945313-120.917968 0-218.945312-98.023438-218.945312-218.945313 0-120.917968 98.027344-218.945312 218.945312-218.945312 120.921875 0 218.945313 98.027344 218.945313 218.945312zm0 0" fill="#36d28f"/><g fill="#b2f0bf"><path d="m93.320312 347.527344h-48.453124c17.914062 27.75 41.929687 51.1875 70.152343 68.417968v-46.71875c0-11.984374-9.714843-21.699218-21.699219-21.699218zm0 0"/><path d="m365.773438 58.03125h-74.242188c-28.234375 0-51.125 22.890625-51.125 51.128906 0 10.484375-8.503906 18.988282-18.992188 18.988282-18.554687 0-33.597656 15.042968-33.597656 33.597656 0 22.589844 18.3125 40.902344 40.902344 40.902344h217.589844c-6.984375-58.359376-36.921875-109.65625-80.535156-144.617188zm0 0"/><path d="m19.976562 163.421875h81.875c13.941407 0 25.242188-11.300781 25.242188-25.242187v-1.035157c0-13.941406 11.300781-25.242187 25.242188-25.242187 13.9375 0 25.238281-11.296875 25.238281-25.238282v-5.523437c0-13.9375-11.300781-25.238281-25.238281-25.238281h-57.53125c-34.863282 27.0625-61.328126 64.417968-74.828126 107.519531zm0 0"/><path d="m248.613281 202.648438h-100.5625c-24.648437 0-44.628906 19.980468-44.628906 44.628906v14.332031c0 22.605469 18.328125 40.933594 40.9375 40.933594 17.34375 0 31.402344 14.0625 31.402344 31.40625v56.203125c0 20.171875 24.859375 29.742187 38.382812 14.773437 5.335938-5.902343 12.921875-9.273437 20.882813-9.273437 15.542968 0 28.144531-12.601563 28.144531-28.144532v-40.707031c0-10.820312 8.773437-19.589843 19.59375-19.589843h9.039063c10.820312 0 19.59375-8.773438 19.59375-19.59375v-22.183594c0-10.820313-8.773438-19.59375-19.59375-19.59375-10.820313 0-19.589844-8.773438-19.589844-19.59375 0-13.03125-10.566406-23.597656-23.601563-23.597656zm0 0"/></g><path d="m481.878906 368.695312v-244.726562c0-33.128906-26.855468-59.984375-59.984375-59.984375-33.128906 0-59.984375 26.855469-59.984375 59.984375v244.726562c-12.515625 14.132813-20.125 32.707032-20.125 53.070313 0 44.078125 36.03125 80.109375 80.109375 80.105469 44.242188 0 80.105469-35.863282 80.105469-80.105469.003906-20.363281-7.609375-38.9375-20.121094-53.070313zm0 0" fill="#fff"/><path d="m421.894531 107.972656c11.042969 0 19.992188 8.953125 19.992188 19.996094v100.132812h-39.988281v-100.132812c0-11.042969 8.953124-19.996094 19.996093-19.996094zm0 0" fill="#fff"/><path d="m401.898438 228.101562v159.164063c-11.949219 6.917969-19.996094 19.828125-19.996094 34.628906 0 22.085938 17.90625 39.988281 39.992187 39.988281 22.085938 0 39.988281-17.902343 39.988281-39.988281 0-14.800781-8.042968-27.710937-19.996093-34.628906v-159.164063" fill="#ff5d5d"/><path d="m421.894531 97.976562c-16.539062 0-29.992187 13.453126-29.992187 29.992188v253.949219c-12.460938 9.375-19.996094 24.207031-19.996094 39.976562 0 27.5625 22.425781 49.988281 49.988281 49.988281s49.988281-22.425781 49.988281-49.988281c0-15.769531-7.535156-30.601562-19.996093-39.976562v-253.949219c0-16.539062-13.457031-29.992188-29.992188-29.992188zm0 19.992188c5.511719 0 9.996094 4.488281 9.996094 10v90.136719h-19.996094v-90.136719c0-5.511719 4.488281-10 10-10zm0 333.917969c-16.539062 0-29.992187-13.457031-29.992187-29.992188 0-10.664062 5.75-20.617187 15.003906-25.972656 3.089844-1.789063 4.988281-5.085937 4.988281-8.65625v-149.164063h19.996094v149.164063c0 3.570313 1.902344 6.867187 4.988281 8.65625 9.257813 5.355469 15.007813 15.308594 15.007813 25.972656 0 16.535157-13.457031 29.992188-29.992188 29.992188zm0 0"/><path d="m491.875 365.03125v-96.097656c0-5.519532-4.476562-9.996094-9.996094-9.996094-5.519531 0-9.996094 4.476562-9.996094 9.996094v99.761718c0 2.441407.890626 4.800782 2.511719 6.628907 11.355469 12.828125 17.609375 29.320312 17.609375 46.441406 0 38.660156-31.449218 70.109375-70.109375 70.113281-18.648437 0-36.234375-7.316406-49.515625-20.597656s-20.597656-30.867188-20.597656-49.515625c.003906-17.121094 6.257812-33.617187 17.613281-46.441406 1.617188-1.828125 2.511719-4.1875 2.511719-6.628907v-244.726562c0-27.5625 22.425781-49.988281 49.988281-49.988281s49.988281 22.425781 49.988281 49.988281v64.984375c0 5.519531 4.476563 9.996094 9.996094 9.996094 5.519532 0 9.996094-4.476563 9.996094-9.996094v-64.984375c0-38.589844-31.390625-69.980469-69.980469-69.980469-12.699219 0-24.605469 3.414063-34.882812 9.351563-42.777344-40.894532-98.636719-63.339844-158.070313-63.339844-61.152344 0-118.644531 23.8125-161.886718 67.054688-43.242188 43.242187-67.054688 100.734374-67.054688 161.886718s23.8125 118.644532 67.054688 161.886719c43.242187 43.242187 100.734374 67.054687 161.886718 67.054687 36.113282 0 71.640625-8.519531 103.585938-24.730468 2.488281 19.6875 11.382812 37.9375 25.714844 52.265625 17.058593 17.058593 39.664062 26.453125 63.652343 26.453125 49.683594 0 90.105469-40.421875 90.105469-90.105469 0-20.710937-7.121094-40.707031-20.125-56.734375zm-229.660156-138.78125c0 16.316406 13.273437 29.589844 29.589844 29.589844 5.292968 0 9.597656 4.300781 9.597656 9.59375v22.183594c0 5.289062-4.304688 9.59375-9.597656 9.59375h-9.039063c-16.316406 0-29.589844 13.273437-29.589844 29.589843v40.707031c0 10.007813-8.144531 18.148438-18.148437 18.148438-10.765625 0-21.082032 4.582031-28.300782 12.566406-5.140624 5.6875-11.445312 3.859375-13.253906 3.164063-1.808594-.695313-7.714844-3.566407-7.714844-11.234375v-56.203125c0-22.828125-18.570312-41.402344-41.398437-41.402344-17.058594 0-30.941406-13.878906-30.941406-30.9375v-14.332031c0-19.097656 15.535156-34.632813 34.632812-34.632813h100.5625c7.5 0 13.601563 6.101563 13.601563 13.605469zm-13.601563-33.601562h-19.894531c-17.039062 0-30.902344-13.863282-30.902344-30.902344 0-13.015625 10.585938-23.601563 23.601563-23.601563 15.980469 0 28.984375-13.003906 28.984375-28.988281 0-22.679688 18.449218-41.128906 41.128906-41.128906h70.734375c3.023437 2.515625 5.980469 5.132812 8.875 7.832031-11.902344 12.550781-19.230469 29.484375-19.230469 48.109375v68.679688zm-150.183593-126.75h53.90625c8.402343 0 15.242187 6.835937 15.242187 15.242187v5.523437c0 8.402344-6.839844 15.242188-15.242187 15.242188-19.433594 0-35.238282 15.808594-35.238282 35.238281v1.035157c0 8.40625-6.839844 15.246093-15.246094 15.246093h-67.726562c13.441406-34.566406 35.828125-64.6875 64.304688-87.527343zm-34.074219 291.625h28.964843c6.453126 0 11.703126 5.25 11.703126 11.703124v27.839844c-15.277344-11.285156-28.96875-24.597656-40.667969-39.542968zm60.660156 52.640624v-40.9375c0-17.476562-14.21875-31.699218-31.695313-31.699218h-42.832031c-19.339843-31.664063-30.492187-68.84375-30.492187-108.585938 0-19.21875 2.621094-37.835937 7.503906-55.523437h74.351562c19.433594 0 35.238282-15.808594 35.238282-35.238281v-1.039063c0-8.402344 6.839844-15.242187 15.246094-15.242187 19.429687 0 35.234374-15.808594 35.234374-35.238282v-5.519531c0-19.429687-15.804687-35.238281-35.234374-35.238281h-24.074219c29.878906-16.5 64.199219-25.90625 100.679687-25.90625 37.410156 0 73.265625 9.75 104.726563 28.039062h-42.136719c-33.703125 0-61.125 27.417969-61.125 61.125 0 4.957032-4.035156 8.992188-8.992188 8.992188-24.039062 0-43.59375 19.554687-43.59375 43.59375 0 11.617187 3.917969 22.328125 10.496094 30.90625h-40.265625c-30.121093 0-54.625 24.503906-54.625 54.625v14.332031c0 28.085937 22.847657 50.933594 50.933594 50.933594 11.800781 0 21.402344 9.601562 21.402344 21.40625v56.203125c0 13.359375 8.058593 25.09375 20.527343 29.894531 3.800782 1.460937 7.726563 2.171875 11.605469 2.171875 8.847657 0 17.4375-3.695312 23.667969-10.589844 3.433594-3.796875 8.339844-5.976562 13.460938-5.976562 21.035156 0 38.144531-17.113282 38.144531-38.144532v-40.707031c0-5.289062 4.304687-9.59375 9.59375-9.59375h9.042969c16.316406 0 29.589843-13.273437 29.589843-29.589843v-22.183594c0-16.316406-13.273437-29.589844-29.589843-29.589844-5.289063 0-9.59375-4.304688-9.59375-9.59375 0-4.839844-1.039063-9.441406-2.890626-13.605469h72.589844v152.386719c-10.613281 13.085938-17.304687 28.816406-19.40625 45.425781-31.402344 17.949219-67.152344 27.433594-103.5625 27.433594-37.804687 0-73.296875-10.09375-103.925781-27.726563zm0 0"/><path d="m481.878906 218.105469c-2.628906 0-5.210937 1.070312-7.070312 2.929687s-2.925782 4.4375-2.925782 7.066406c0 2.628907 1.066407 5.210938 2.925782 7.070313s4.441406 2.929687 7.070312 2.929687 5.207032-1.070312 7.066406-2.929687c1.859376-1.859375 2.929688-4.441406 2.929688-7.070313 0-2.628906-1.070312-5.207031-2.929688-7.066406-1.859374-1.859375-4.4375-2.929687-7.066406-2.929687zm0 0"/><path d="m178.953125 242.605469c0 5.523437 4.480469 9.996093 10 9.996093h44.65625c5.519531 0 9.996094-4.472656 9.996094-9.996093 0-5.519531-4.476563-9.996094-9.996094-9.996094h-44.65625c-5.519531 0-10 4.476563-10 9.996094zm0 0"/><path d="m148.960938 232.613281c-2.628907 0-5.207032 1.058594-7.066407 2.925781-1.859375 1.859376-2.929687 4.429688-2.929687 7.070313 0 2.628906 1.070312 5.207031 2.929687 7.066406s4.4375 2.929688 7.066407 2.929688c2.632812 0 5.210937-1.070313 7.070312-2.929688s2.929688-4.4375 2.929688-7.066406c0-2.640625-1.070313-5.210937-2.929688-7.070313-1.859375-1.867187-4.4375-2.925781-7.070312-2.925781zm0 0"/></svg>